<svg width="41" height="41" viewBox="0 0 41 41" fill="none" xmlns="http://www.w3.org/2000/svg">
<path opacity="0.5" d="M40.7098 1.17658L30.8961 37.7325C30.8462 37.8984 30.6471 37.9481 30.5311 37.8318L23.9837 31.2712L28.9072 12.9517C28.9571 12.7858 28.8079 12.6363 28.642 12.686L10.3256 17.5852L3.81139 11.0578C3.69536 10.9415 3.74527 10.7424 3.91118 10.6927L40.4446 0.910831C40.6105 0.87776 40.7597 1.02724 40.7098 1.17658Z" fill="#00B37E"/>
<path opacity="0.5" d="M23.9835 31.2708L21.4552 40.7293C21.4053 40.8952 21.2062 40.9448 21.0902 40.8286L0.768658 20.4823C0.65263 20.366 0.70254 20.1669 0.868454 20.1172L10.3253 17.5849L23.9835 31.2708Z" fill="#00B37E"/>
<path d="M28.9064 12.9514L23.9829 31.2708L10.3247 17.5848L28.6412 12.6857C28.8071 12.636 28.9563 12.7855 28.9064 12.9514Z" fill="#00B37E"/>
</svg>
